<svg xmlns:dc="http://purl.org/dc/elements/1.1/" xmlns:cc="http://creativecommons.org/ns#" xmlns:rdf="http://www.w3.org/1999/02/22-rdf-syntax-ns#" xmlns:svg="http://www.w3.org/2000/svg" xmlns="http://www.w3.org/2000/svg" xmlns:xlink="http://www.w3.org/1999/xlink" id="svg516607" viewBox="0 0 1024 768" height="768" width="1024" version="1.1">
  <metadata id="metadata516613" fill="#FFFFFF">
    <rdf:rdf fill="#FFFFFF">
      <cc:work rdf:about="" fill="#FFFFFF">
        <dc:format fill="#FFFFFF">image/svg+xml</dc:format>
        <dc:type rdf:resource="http://purl.org/dc/dcmitype/StillImage" fill="#FFFFFF"></dc:type>
      </cc:work>
    </rdf:rdf>
  </metadata>
  <defs id="defs516611"></defs>
  <linearGradient spreadMethod="pad" y2="30%" x2="-10%" y1="120%" x1="30%" id="3d_gradient2-logo-23b66d21-1763-4620-9b40-ce36fe45994f" fill="#FFFFFF">
    <stop id="stop516588" stop-opacity="1" stop-color="#ffffff" offset="0%" fill="#FFFFFF"></stop>
    <stop id="stop516590" stop-opacity="1" stop-color="#000000" offset="100%" fill="#FFFFFF"></stop>
  </linearGradient>
  <linearGradient gradientTransform="rotate(-30)" spreadMethod="pad" y2="30%" x2="-10%" y1="120%" x1="30%" id="3d_gradient3-logo-23b66d21-1763-4620-9b40-ce36fe45994f" fill="#FFFFFF">
    <stop id="stop516593" stop-opacity="1" stop-color="#ffffff" offset="0%" fill="#FFFFFF"></stop>
    <stop id="stop516595" stop-opacity="1" stop-color="#cccccc" offset="50%" fill="#FFFFFF"></stop>
    <stop id="stop516597" stop-opacity="1" stop-color="#000000" offset="100%" fill="#FFFFFF"></stop>
  </linearGradient>
  <g id="logo-group" fill="#FFFFFF">
    <image xlink:href="" id="container" x="272" y="144" width="480" height="480" transform="translate(0 0)" style="display: none;" fill="#FFFFFF"></image>
    <g id="logo-center" transform="translate(5.684341886080802e-14 0)" fill="#FFFFFF">
      <image xlink:href="" id="icon_container" x="0" y="0" style="display: none;" fill="#FFFFFF"></image>
      <g id="slogan" style="font-style:normal;font-weight:500;font-size:32px;line-height:1;font-family:Montserrat;font-variant-ligatures:none;text-align:center;text-anchor:middle" transform="translate(0 0)" fill="#FFFFFF"></g>
      <g id="title" style="font-style:oblique;font-weight:700;font-size:72px;line-height:1;font-family:'Uni Neue';font-variant-ligatures:none;text-align:center;text-anchor:middle" transform="translate(0 0)" fill="#FFFFFF">
        <path id="path516616" style="font-style:oblique;font-weight:700;font-size:72px;line-height:1;font-family:'Uni Neue';font-variant-ligatures:none;text-align:center;text-anchor:middle" d="m 332.16481,-50.112 c 0.072,-0.792 -0.288,-1.368 -1.152,-1.368 h -8.928 c -0.72,0 -1.224,0.432 -1.296,1.152 l -8.64,48.96 c -0.144,0.792 0.288,1.368 1.08,1.368 h 28.656 c 0.792,0 1.224,-0.432 1.368,-1.152 l 1.368,-7.92 c 0.144,-0.792 -0.288,-1.368 -1.152,-1.368 h -18.288 z" stroke-width="0px" stroke-linejoin="miter" stroke-miterlimit="2" fill="#EDEDED" stroke="#EDEDED" transform="translate(0 307.324) translate(240.970279 50.936) scale(1) translate(-312.12137 51.48)"></path>
        <path id="path516618" style="font-style:oblique;font-weight:700;font-size:72px;line-height:1;font-family:'Uni Neue';font-variant-ligatures:none;text-align:center;text-anchor:middle" d="m 388.69494,-17.784 5.616,-32.328 c 0.072,-0.792 -0.36,-1.368 -1.152,-1.368 h -9.072 c -0.72,0 -1.152,0.432 -1.296,1.152 l -5.472,31.68 c -1.08,5.976 -4.464,8.928 -9.288,8.928 -4.68,0 -7.2,-3.168 -6.12,-9.432 l 5.544,-30.96 c 0.144,-0.792 -0.288,-1.368 -1.152,-1.368 h -9.072 c -0.72,0 -1.152,0.432 -1.296,1.152 l -5.328,29.88 c -2.232,13.32 4.032,21.312 15.768,21.312 12.888,0 20.304,-6.912 22.32,-18.648 z" stroke-width="0px" stroke-linejoin="miter" stroke-miterlimit="2" fill="#E4E4E4" stroke="#E4E4E4" transform="translate(0 307.324) translate(294.008959 50.936) scale(1) translate(-350.16005 51.48)"></path>
        <path id="path516620" style="font-style:oblique;font-weight:700;font-size:72px;line-height:1;font-family:'Uni Neue';font-variant-ligatures:none;text-align:center;text-anchor:middle" d="m 431.10744,-3.672 c 0.504,-0.288 0.576,-0.72 0.216,-1.512 l -3.384,-7.056 c -0.432,-0.792 -1.008,-0.936 -1.728,-0.504 -3.024,2.016 -6.84,3.168 -10.152,3.168 -5.616,0 -8.208,-3.168 -7.272,-9 l 2.52,-14.544 c 0.864,-5.328 4.32,-8.856 10.08,-8.856 3.096,0 6.048,1.008 8.352,2.592 0.72,0.432 1.296,0.36 1.728,-0.216 l 5.256,-6.192 c 0.504,-0.648 0.504,-1.296 -0.144,-1.728 -3.528,-2.952 -8.568,-4.896 -14.184,-4.896 -11.664,0 -20.52,6.12 -22.608,18.144 l -2.52,14.616 c -2.232,12.96 4.824,20.592 16.704,20.592 7.128,0 12.672,-1.944 17.136,-4.608 z" stroke-width="0px" stroke-linejoin="miter" stroke-miterlimit="2" fill="#DCDCDC" stroke="#DCDCDC" transform="translate(0 307.324) translate(355.705969 50) scale(1) translate(-396.85706 52.416)"></path>
        <path id="path516622" style="font-style:oblique;font-weight:700;font-size:72px;line-height:1;font-family:'Uni Neue';font-variant-ligatures:none;text-align:center;text-anchor:middle" d="m 471.46681,-3.672 c 0.504,-0.288 0.576,-0.72 0.216,-1.512 l -3.384,-7.056 c -0.432,-0.792 -1.008,-0.936 -1.728,-0.504 -3.024,2.016 -6.84,3.168 -10.152,3.168 -5.616,0 -8.208,-3.168 -7.272,-9 l 2.52,-14.544 c 0.864,-5.328 4.32,-8.856 10.08,-8.856 3.096,0 6.048,1.008 8.352,2.592 0.72,0.432 1.296,0.36 1.728,-0.216 l 5.256,-6.192 c 0.504,-0.648 0.504,-1.296 -0.144,-1.728 -3.528,-2.952 -8.568,-4.896 -14.184,-4.896 -11.664,0 -20.52,6.12 -22.608,18.144 l -2.52,14.616 c -2.232,12.96 4.824,20.592 16.704,20.592 7.128,0 12.672,-1.944 17.136,-4.608 z" stroke-width="0px" stroke-linejoin="miter" stroke-miterlimit="2" fill="#D3D3D3" stroke="#D3D3D3" transform="translate(0 307.324) translate(411.065339 50) scale(1) translate(-437.21643 52.416)"></path>
        <path id="path516624" style="font-style:oblique;font-weight:700;font-size:72px;line-height:1;font-family:'Uni Neue';font-variant-ligatures:none;text-align:center;text-anchor:middle" d="m 515.91331,0 c 0.864,0 1.296,-0.504 1.152,-1.296 l -7.416,-49.032 c -0.144,-0.792 -0.648,-1.152 -1.368,-1.152 h -10.512 c -0.648,0 -1.152,0.288 -1.44,0.936 l -23.976,49.032 c -0.432,0.936 -0.072,1.512 0.864,1.512 h 9.864 c 0.648,0 1.224,-0.288 1.44,-0.936 l 3.888,-8.64 h 16.2 l 1.008,8.424 c 0.072,0.792 0.576,1.152 1.296,1.152 z m -14.4,-38.952 c 0.432,4.608 1.224,12.024 1.944,19.152 h -10.512 c 3.168,-6.912 6.264,-14.4 8.28,-19.152 z" stroke-width="0px" stroke-linejoin="miter" stroke-miterlimit="2" fill="#CBCBCB" stroke="#CBCBCB" transform="translate(0 307.324) translate(461.020849 50.936) scale(1) translate(-472.17194 51.48)"></path>
        <path id="path516626" style="font-style:oblique;font-weight:700;font-size:72px;line-height:1;font-family:'Uni Neue';font-variant-ligatures:none;text-align:center;text-anchor:middle" d="m 559.62744,-13.392 c 2.376,-12.168 -8.064,-15.84 -14.616,-17.856 -4.608,-1.368 -7.632,-2.592 -7.056,-6.048 0.576,-2.88 3.024,-4.752 6.912,-4.752 4.104,0 8.352,1.44 11.592,3.528 0.648,0.432 1.224,0.36 1.728,-0.216 l 5.04,-6.48 c 0.504,-0.648 0.432,-1.296 -0.216,-1.728 -4.968,-3.672 -10.008,-5.472 -16.848,-5.472 -9.72,0 -17.712,3.888 -19.44,13.968 -1.728,10.224 5.256,14.976 12.96,17.208 5.328,1.512 9,2.952 8.424,6.552 -0.576,3.384 -4.248,5.04 -8.424,5.04 -4.464,0 -8.28,-1.656 -12.24,-4.752 -0.648,-0.504 -1.296,-0.504 -1.8,0.144 l -5.184,6.408 c -0.504,0.648 -0.432,1.296 0.144,1.8 4.896,4.32 10.296,6.984 17.856,6.984 9.36,0 18.864,-3.096 21.168,-14.328 z" stroke-width="0px" stroke-linejoin="miter" stroke-miterlimit="2" fill="#C2C2C2" stroke="#C2C2C2" transform="translate(0 307.324) translate(523.9713089999999 50) scale(1) translate(-520.1224 52.416)"></path>
        <path id="path516628" style="font-style:oblique;font-weight:700;font-size:72px;line-height:1;font-family:'Uni Neue';font-variant-ligatures:none;text-align:center;text-anchor:middle" d="m 575.51131,-4.896 c 0.72,-4.176 -1.656,-7.2 -5.616,-7.2 -3.6,0 -6.12,2.304 -6.768,5.616 -0.72,4.032 1.656,7.2 5.544,7.2 3.744,0 6.264,-2.376 6.84,-5.616 z" stroke-width="0px" stroke-linejoin="miter" stroke-miterlimit="2" fill="#BABABA" stroke="#BABABA" transform="translate(0 307.324) translate(581.8480289999999 90.32) scale(1) translate(-562.99912 12.096)"></path>
        <path id="path516630" style="font-style:oblique;font-weight:700;font-size:72px;line-height:1;font-family:'Uni Neue';font-variant-ligatures:none;text-align:center;text-anchor:middle" d="m 600.57744,0 c 12.096,0 20.304,-4.824 22.752,-19.008 l 2.088,-11.88 c 2.448,-14.256 -5.76,-20.592 -16.272,-20.592 h -16.92 c -0.72,0 -1.224,0.432 -1.296,1.152 l -8.64,48.96 c -0.144,0.792 0.288,1.368 1.08,1.368 z m 0.072,-41.04 h 7.2 c 5.112,0 7.2,2.52 6.12,8.712 l -2.232,12.816 c -1.152,6.408 -4.32,9.072 -9.36,9.072 h -7.128 z" stroke-width="0px" stroke-linejoin="miter" stroke-miterlimit="2" fill="#B1B1B1" stroke="#B1B1B1" transform="translate(0 307.324) translate(616.1109089999999 50.936) scale(1) translate(-582.262 51.48)"></path>
        <path id="path516632" style="font-style:oblique;font-weight:700;font-size:72px;line-height:1;font-family:'Uni Neue';font-variant-ligatures:none;text-align:center;text-anchor:middle" d="m 669.58831,-50.112 c 0.144,-0.792 -0.288,-1.368 -1.152,-1.368 h -29.592 c -0.72,0 -1.152,0.432 -1.296,1.152 l -8.712,48.96 c -0.072,0.792 0.288,1.368 1.152,1.368 h 30.744 c 0.792,0 1.224,-0.36 1.368,-1.152 l 1.296,-7.848 c 0.072,-0.792 -0.36,-1.368 -1.152,-1.368 h -20.376 l 1.872,-10.728 h 17.352 c 0.72,0 1.152,-0.432 1.296,-1.152 l 1.368,-7.56 c 0.144,-0.864 -0.288,-1.368 -1.08,-1.368 h -17.136 l 1.8,-10.008 h 19.584 c 0.72,0 1.152,-0.432 1.296,-1.152 z" stroke-width="0px" stroke-linejoin="miter" stroke-miterlimit="2" fill="#A9A9A9" stroke="#A9A9A9" transform="translate(0 307.324) translate(677.676259 50.936) scale(1) translate(-628.82735 51.48)"></path>
        <path id="path516634" style="font-style:oblique;font-weight:700;font-size:72px;line-height:1;font-family:'Uni Neue';font-variant-ligatures:none;text-align:center;text-anchor:middle" d="m 693.15144,0 c 0.648,0 1.152,-0.288 1.44,-0.936 l 24.408,-49.032 c 0.432,-0.936 0.072,-1.512 -0.864,-1.512 h -9.936 c -0.648,0 -1.224,0.36 -1.512,0.936 l -10.656,23.04 c -2.088,4.608 -4.392,10.44 -6.048,14.544 h -0.432 c -0.288,-4.176 -0.936,-10.584 -1.512,-15.408 l -2.592,-21.96 c -0.072,-0.792 -0.576,-1.152 -1.368,-1.152 h -9.144 c -0.792,0 -1.296,0.504 -1.152,1.296 l 7.2,49.032 c 0.144,0.792 0.576,1.152 1.368,1.152 z" stroke-width="0px" stroke-linejoin="miter" stroke-miterlimit="2" fill="#A0A0A0" stroke="#A0A0A0" transform="translate(0 307.324) translate(737.6078289999999 50.936) scale(1) translate(-673.75892 51.48)"></path>
      </g>
      <image xlink:href="" id="icon" x="0" y="0" style="display: none;" fill="#FFFFFF"></image>
    </g>
  </g>
</svg>